<svg width="1002" height="600" viewBox="0 0 1002 600" fill="none" xmlns="http://www.w3.org/2000/svg">
<g id="Frame 1">
<g id="logo" filter="url(#filter0_i)">
<g id="Group">
<path id="Vector" d="M669.782 139.675H726.696V260.42H669.782V139.675ZM930.495 94.8036V384.306C930.495 397.932 918.5 409.018 903.751 409.018H597.123C582.37 409.018 570.367 397.932 570.367 384.306V94.8036C570.367 81.1754 582.362 70.0889 597.123 70.0889H903.751C918.5 70.0822 930.495 81.1754 930.495 94.8036ZM778.126 139.797C778.126 130.378 772.856 122.111 762.345 115.007C751.82 107.897 739.765 104.343 726.166 104.343H618.177V295.75H726.341C739.817 295.75 751.82 292.217 762.338 285.152C772.856 278.079 778.118 269.805 778.118 260.295V139.797H778.126V139.797ZM1002 47.4326V431.657C1002 456.197 980.473 476.091 953.929 476.091H546.948C520.404 476.091 498.877 456.197 498.877 431.657V47.4326C498.877 22.8948 520.404 3 546.948 3H953.93C980.473 3.00676 1002 22.9027 1002 47.4326ZM949.454 94.8036C949.454 71.522 928.952 52.5669 903.751 52.5669H597.123C571.926 52.5669 551.417 71.5153 551.417 94.8036V384.306C551.417 407.584 571.919 426.539 597.123 426.539H903.751C928.945 426.539 949.454 407.591 949.454 384.306V94.8036Z" fill="white"/>
</g>
<g id="Group_2">
<path id="Vector_2" d="M404.873 70.0823H98.2453C83.4919 70.0823 71.4888 81.169 71.4888 94.8034V384.305C71.4888 397.929 83.4844 409.024 98.2453 409.024H404.873C419.621 409.024 431.624 397.936 431.624 384.305V94.8034C431.617 81.169 419.621 70.0823 404.873 70.0823ZM274.535 292.285H217.259L161.948 214.309V292.285H110.518V100.878H161.948V178.858L217.259 100.878H274.535L205.74 196.647L274.535 292.285ZM455.043 3H48.0703C21.526 3 0 22.8963 0 47.4317V431.655C0 456.196 21.526 476.09 48.0703 476.09H455.05C481.596 476.09 503.12 456.195 503.12 431.655V47.4317C503.12 22.8963 481.596 3 455.043 3ZM450.574 384.291C450.574 407.576 430.072 426.532 404.871 426.532H98.2453C73.0485 426.532 52.5385 407.583 52.5385 384.291V94.8034C52.5385 71.5226 73.0397 52.5677 98.2453 52.5677H404.873C430.066 52.5677 450.576 71.5168 450.576 94.8034V384.291H450.574Z" fill="white"/>
</g>
</g>
<g id="js" filter="url(#filter1_i)">
<path id="Vector_3" d="M651.818 343H595.823C594.264 343 593 344.17 593 346.439V441.214C593 441.83 594.264 443 595.823 443H673.142C674.701 443 675.964 441.83 675.964 441.214V366.175C675.964 364.932 675.785 364.532 675.469 364.237L653.018 343.459C652.7 343.166 652.267 343 651.818 343Z" fill="#E9E9E0"/>
<path id="Vector_4" d="M652.812 343.269V364.428H675.673L652.812 343.269Z" fill="#D9D7CA"/>
<path id="Vector_5" d="M673.142 443H595.823C594.264 443 593 441.83 593 440.388V412.643H675.964V440.388C675.964 441.83 674.701 443 673.142 443Z" fill="#EEAF4B"/>
<g id="Group_3">
<path id="Vector_6" d="M630.664 419.284V433.298C630.664 434.145 630.496 434.857 630.162 435.434C629.827 436.011 629.379 436.475 628.817 436.825C628.254 437.175 627.608 437.42 626.878 437.557C626.149 437.695 625.395 437.764 624.623 437.764C624.235 437.764 623.782 437.727 623.265 437.654C622.748 437.58 622.209 437.468 621.656 437.313C621.102 437.157 620.569 436.982 620.06 436.788C619.549 436.593 619.118 436.373 618.767 436.129L620.112 434.152C620.288 434.264 620.538 434.384 620.864 434.505C621.191 434.627 621.546 434.741 621.933 434.846C622.319 434.954 622.724 435.045 623.147 435.127C623.569 435.209 623.965 435.248 624.334 435.248C625.263 435.248 626.008 435.08 626.562 434.748C627.116 434.416 627.409 433.848 627.446 433.052V419.282H630.664V419.284Z" fill="white"/>
<path id="Vector_7" d="M646.414 432.712C646.414 433.362 646.269 433.994 645.978 434.605C645.686 435.215 645.279 435.753 644.75 436.215C644.222 436.678 643.572 437.049 642.798 437.326C642.024 437.603 641.144 437.74 640.16 437.74C639.738 437.74 639.304 437.719 638.854 437.68C638.405 437.64 637.951 437.569 637.496 437.473C637.039 437.374 636.603 437.24 636.19 437.069C635.777 436.898 635.42 436.69 635.121 436.446L635.675 434.346C635.92 434.476 636.232 434.603 636.61 434.724C636.988 434.846 637.378 434.96 637.783 435.065C638.187 435.172 638.592 435.256 638.997 435.323C639.4 435.387 639.778 435.421 640.131 435.421C641.204 435.421 642.026 435.189 642.597 434.724C643.168 434.26 643.454 433.572 643.454 432.662C643.454 432.108 643.251 431.637 642.848 431.246C642.443 430.855 641.937 430.501 641.332 430.183C640.726 429.865 640.07 429.549 639.365 429.231C638.661 428.914 638.001 428.539 637.388 428.108C636.772 427.678 636.261 427.169 635.858 426.583C635.453 425.997 635.252 425.265 635.252 424.387C635.252 423.59 635.41 422.881 635.727 422.264C636.043 421.646 636.469 421.119 637.006 420.689C637.542 420.258 638.167 419.928 638.879 419.699C639.591 419.471 640.344 419.358 641.135 419.358C641.943 419.358 642.761 419.428 643.587 419.565C644.413 419.703 645.08 419.928 645.592 420.237C645.486 420.447 645.362 420.68 645.223 420.933C645.082 421.187 644.949 421.421 644.828 421.64C644.704 421.86 644.598 422.044 644.511 422.19C644.422 422.337 644.37 422.419 644.353 422.435C644.247 422.387 644.129 422.322 643.996 422.24C643.863 422.158 643.674 422.078 643.429 421.996C643.182 421.914 642.856 421.858 642.453 421.824C642.047 421.79 641.528 421.799 640.895 421.849C640.542 421.883 640.211 421.974 639.892 422.13C639.574 422.285 639.292 422.474 639.047 422.703C638.8 422.931 638.605 423.187 638.466 423.472C638.326 423.756 638.256 424.031 638.256 424.29C638.256 424.94 638.457 425.465 638.862 425.865C639.265 426.265 639.767 426.614 640.365 426.915C640.963 427.217 641.611 427.51 642.317 427.794C643.02 428.078 643.676 428.426 644.284 428.831C644.891 429.237 645.395 429.747 645.8 430.356C646.209 430.967 646.414 431.751 646.414 432.712Z" fill="white"/>
</g>
<g id="Group_4">
<path id="Vector_8" d="M618.082 376.929V369.786C618.082 368.802 618.947 368 620.012 368C621.079 368 621.941 367.2 621.941 366.214C621.941 365.229 621.079 364.429 620.012 364.429C616.82 364.429 614.223 366.832 614.223 369.786V376.929C614.223 378.898 612.493 380.5 610.365 380.5C609.298 380.5 608.435 381.3 608.435 382.286C608.435 383.271 609.298 384.071 610.365 384.071C612.493 384.071 614.223 385.673 614.223 387.643V394.786C614.223 397.739 616.82 400.143 620.012 400.143C621.079 400.143 621.941 399.343 621.941 398.357C621.941 397.371 621.079 396.571 620.012 396.571C618.947 396.571 618.082 395.77 618.082 394.786V387.643C618.082 385.5 617.037 383.596 615.416 382.286C617.037 380.975 618.082 379.071 618.082 376.929Z" fill="#EEAF4B"/>
<path id="Vector_9" d="M633.517 378.714C635.116 378.714 636.412 377.515 636.412 376.036C636.412 374.556 635.116 373.357 633.517 373.357C631.919 373.357 630.623 374.556 630.623 376.036C630.623 377.515 631.919 378.714 633.517 378.714Z" fill="#EEAF4B"/>
<path id="Vector_10" d="M656.67 380.5C654.542 380.5 652.812 378.898 652.812 376.929V369.786C652.812 366.832 650.215 364.429 647.023 364.429C645.956 364.429 645.094 365.229 645.094 366.214C645.094 367.2 645.956 368 647.023 368C648.088 368 648.953 368.802 648.953 369.786V376.929C648.953 379.071 649.998 380.975 651.619 382.286C649.998 383.596 648.953 385.5 648.953 387.643V394.786C648.953 395.77 648.088 396.571 647.023 396.571C645.956 396.571 645.094 397.371 645.094 398.357C645.094 399.343 645.956 400.143 647.023 400.143C650.215 400.143 652.812 397.739 652.812 394.786V387.643C652.812 385.673 654.542 384.071 656.67 384.071C657.737 384.071 658.6 383.271 658.6 382.286C658.6 381.3 657.737 380.5 656.67 380.5Z" fill="#EEAF4B"/>
<path id="Vector_11" d="M633.517 385.857C632.451 385.857 631.588 386.657 631.588 387.643V393C631.588 393.986 632.451 394.786 633.517 394.786C634.584 394.786 635.447 393.986 635.447 393V387.643C635.447 386.657 634.584 385.857 633.517 385.857Z" fill="#EEAF4B"/>
</g>
</g>
<g id="css-3 1" filter="url(#filter2_i)">
<path id="Vector_12" d="M331.493 343L339.462 433L375.243 443L411.012 433.006L418.993 343H331.493Z" fill="#2196F3"/>
<path id="Vector_13" d="M401.712 372.431L400.706 383.738L397.669 417.631L375 423.9L374.981 423.906L352.325 417.631L350.744 399.906H361.844L362.669 409.1L374.987 412.425L374.994 412.419L387.331 409.094L389.012 393.775L350.212 393.881L349.112 383.406L389.944 382.925L390.769 371.712L348.019 371.831L347.3 361.4H375H402.7L401.712 372.431Z" fill="#FAFAFA"/>
</g>
<g id="html" filter="url(#filter3_i)">
<g id="Group_5">
<g id="Group_6">
<g id="Group_7">
<path id="Vector_14" d="M323.757 520.466C322.573 520.466 321.613 519.618 321.613 518.573V498.963C321.613 497.917 322.573 497.069 323.757 497.069H375.272V475.557C375.272 472.906 372.815 470.736 369.812 470.736H325.406L303.106 490.424V552.536C303.106 555.187 305.563 557.357 308.566 557.357H369.812C372.815 557.357 375.272 555.188 375.272 552.536V520.466H323.757V520.466Z" fill="#EDF4FC"/>
</g>
</g>
<g id="Group_8">
<g id="Group_9">
<path id="Vector_15" d="M378.142 497.069H323.757C322.573 497.069 321.613 497.917 321.613 498.963V518.572C321.613 519.618 322.573 520.466 323.757 520.466H378.142C379.327 520.466 380.287 519.618 380.287 518.572V498.963C380.287 497.917 379.327 497.069 378.142 497.069Z" fill="#FC8C48"/>
</g>
</g>
<g id="Group_10">
<g id="Group_11">
<path id="Vector_16" d="M303.106 490.424H319.946C322.948 490.424 325.406 488.255 325.406 485.603V470.736L303.106 490.424Z" fill="#FCA265"/>
</g>
</g>
<g id="Group_12">
<g id="Group_13">
<path id="Vector_17" d="M357.191 536.343L347.728 530.066C346.788 529.442 345.448 529.604 344.736 530.441C344.028 531.273 344.219 532.458 345.161 533.083L352.35 537.852L345.161 542.62C344.219 543.246 344.028 544.431 344.736 545.262C345.447 546.098 346.791 546.259 347.728 545.637L357.191 539.359C358.328 538.606 358.33 537.099 357.191 536.343V536.343Z" fill="#818182"/>
</g>
</g>
<g id="Group_14">
<g id="Group_15">
<path id="Vector_18" d="M332.99 542.621L325.801 537.852L332.99 533.083C333.934 532.457 334.125 531.275 333.415 530.441C332.707 529.61 331.364 529.442 330.422 530.066L320.96 536.344C320.418 536.704 320.106 537.254 320.106 537.852C320.106 538.451 320.418 539.001 320.96 539.361L330.422 545.638C331.366 546.264 332.705 546.097 333.415 545.263C334.123 544.431 333.936 543.249 332.99 542.621V542.621Z" fill="#818182"/>
</g>
</g>
<g id="Group_16">
<g id="Group_17">
<path id="Vector_19" d="M343.089 527.635C341.988 527.292 340.759 527.79 340.361 528.784L333.59 545.66C333.196 546.643 333.777 547.72 334.891 548.069C336.01 548.419 337.227 547.898 337.619 546.92L344.389 530.044C344.785 529.059 344.2 527.983 343.089 527.635V527.635Z" fill="#818182"/>
</g>
</g>
<g id="Group_18">
<g id="Group_19">
<path id="Vector_20" d="M310.403 473.637C308.567 473.939 307.12 475.19 306.771 476.778C306.753 476.858 306.627 476.858 306.61 476.778C306.261 475.19 304.814 473.939 302.978 473.637C302.886 473.622 302.886 473.513 302.978 473.498C304.814 473.196 306.261 471.945 306.61 470.357C306.628 470.277 306.754 470.277 306.771 470.357C307.12 471.945 308.567 473.196 310.403 473.498C310.495 473.513 310.495 473.622 310.403 473.637Z" fill="#FC657E"/>
</g>
</g>
<g id="Group_20">
<g id="Group_21">
<path id="Vector_21" d="M384.952 528.108C383.664 528.32 382.649 529.198 382.404 530.311C382.392 530.367 382.304 530.367 382.292 530.311C382.047 529.198 381.032 528.32 379.744 528.108C379.68 528.098 379.68 528.021 379.744 528.011C381.032 527.799 382.047 526.921 382.292 525.808C382.304 525.752 382.392 525.752 382.404 525.808C382.649 526.921 383.664 527.799 384.952 528.011C385.016 528.021 385.016 528.097 384.952 528.108Z" fill="#F5C84C"/>
</g>
</g>
<g id="Group_22">
<g id="Group_23">
<path id="Vector_22" d="M320.607 468.638C321.432 468.638 322.101 468.048 322.101 467.319C322.101 466.591 321.432 466 320.607 466C319.782 466 319.113 466.591 319.113 467.319C319.113 468.048 319.782 468.638 320.607 468.638Z" fill="#70D6F9"/>
</g>
</g>
<g id="Group_24">
<g id="Group_25">
<path id="Vector_23" d="M381.221 538.951C382.047 538.951 382.715 538.36 382.715 537.631C382.715 536.903 382.047 536.312 381.221 536.312C380.396 536.312 379.727 536.903 379.727 537.631C379.727 538.36 380.396 538.951 381.221 538.951Z" fill="#87D147"/>
</g>
</g>
<g id="Group_26">
<g id="Group_27">
<path id="Vector_24" d="M341.168 562.389H340.361V561.677C340.361 561.143 339.872 560.711 339.267 560.711C338.663 560.711 338.173 561.143 338.173 561.677V562.389H337.366C336.762 562.389 336.272 562.822 336.272 563.355C336.272 563.889 336.762 564.321 337.366 564.321H338.173V565.034C338.173 565.568 338.663 566 339.267 566C339.872 566 340.361 565.568 340.361 565.034V564.321H341.168C341.773 564.321 342.263 563.889 342.263 563.355C342.263 562.822 341.772 562.389 341.168 562.389V562.389Z" fill="#70D6F9"/>
</g>
</g>
<g id="Group_28">
<g id="Group_29">
<path id="Vector_25" d="M353.075 564.048C353.9 564.048 354.569 563.457 354.569 562.729C354.569 562 353.9 561.41 353.075 561.41C352.25 561.41 351.581 562 351.581 562.729C351.581 563.457 352.25 564.048 353.075 564.048Z" fill="#F5C84C"/>
</g>
</g>
<g id="Group_30">
<g id="Group_31">
<path id="Vector_26" d="M378.142 521.443H323.758C321.965 521.443 320.507 520.155 320.507 518.573V498.963C320.507 497.38 321.965 496.092 323.758 496.092H378.142C379.935 496.092 381.393 497.38 381.393 498.963V518.572C381.393 520.155 379.935 521.443 378.142 521.443ZM323.758 498.046C323.185 498.046 322.719 498.457 322.719 498.963V518.573C322.719 519.078 323.185 519.49 323.758 519.49H378.142C378.715 519.49 379.181 519.078 379.181 518.573V498.963C379.181 498.457 378.715 498.046 378.142 498.046H323.758V498.046Z" fill="black"/>
</g>
</g>
<g id="Group_32">
<g id="Group_33">
<path id="Vector_27" d="M337.72 502.331H335.876C335.752 502.331 335.652 502.419 335.652 502.529V507.729H328.923V502.529C328.923 502.419 328.823 502.331 328.699 502.331H326.875C326.751 502.331 326.651 502.419 326.651 502.529V515.006C326.651 515.116 326.751 515.204 326.875 515.204H328.699C328.823 515.204 328.923 515.116 328.923 515.006V509.435H335.652V515.006C335.652 515.116 335.752 515.204 335.876 515.204H337.72C337.843 515.204 337.943 515.116 337.943 515.006V502.529C337.943 502.42 337.843 502.331 337.72 502.331Z" fill="black"/>
</g>
</g>
<g id="Group_34">
<g id="Group_35">
<path id="Vector_28" d="M349.307 502.331H339.504C339.38 502.331 339.28 502.419 339.28 502.529V503.839C339.28 503.948 339.38 504.036 339.504 504.036H343.27V515.006C343.27 515.116 343.37 515.204 343.493 515.204H345.317C345.441 515.204 345.541 515.116 345.541 515.006V504.036H349.307C349.431 504.036 349.531 503.948 349.531 503.839V502.529C349.531 502.42 349.431 502.331 349.307 502.331V502.331Z" fill="black"/>
</g>
</g>
<g id="Group_36">
<g id="Group_37">
<path id="Vector_29" d="M365.263 502.544H363.078C362.987 502.544 362.906 502.592 362.871 502.665L358.225 512.531L353.501 502.664C353.466 502.591 353.385 502.544 353.295 502.544H351.11C350.986 502.544 350.886 502.632 350.886 502.741V515.006C350.886 515.116 350.986 515.204 351.11 515.204H352.934C353.058 515.204 353.158 515.116 353.158 515.006V506.274L357.176 515.08C357.21 515.155 357.293 515.204 357.384 515.204H359.008C359.1 515.204 359.182 515.155 359.216 515.08L363.215 506.247V515.006C363.215 515.116 363.315 515.204 363.439 515.204H365.262C365.386 515.204 365.486 515.116 365.486 515.006V502.741C365.487 502.632 365.387 502.544 365.263 502.544V502.544Z" fill="black"/>
</g>
</g>
<g id="Group_38">
<g id="Group_39">
<path id="Vector_30" d="M375.025 513.552H370.238V502.529C370.238 502.419 370.138 502.331 370.014 502.331H368.19C368.066 502.331 367.966 502.419 367.966 502.529V515.006C367.966 515.116 368.066 515.204 368.19 515.204H375.026C375.15 515.204 375.25 515.116 375.25 515.006V513.75C375.249 513.64 375.149 513.552 375.025 513.552V513.552Z" fill="black"/>
</g>
</g>
<g id="Group_40">
<g id="Group_41">
<path id="Vector_31" d="M369.813 558.334H308.566C304.945 558.334 302 555.733 302 552.536V490.424C302 490.165 302.117 489.917 302.324 489.734L324.623 470.046C324.831 469.862 325.112 469.76 325.406 469.76H369.812C373.433 469.76 376.378 472.361 376.378 475.557V496.696C376.378 497.236 375.883 497.673 375.272 497.673C374.661 497.673 374.166 497.236 374.166 496.696V475.557C374.166 473.437 372.213 471.713 369.812 471.713H325.864L304.212 490.829V552.536C304.212 554.656 306.166 556.381 308.566 556.381H369.813C372.213 556.381 374.167 554.656 374.167 552.536V520.773C374.167 520.233 374.662 519.796 375.273 519.796C375.884 519.796 376.379 520.233 376.379 520.773V552.536C376.379 555.733 373.433 558.334 369.813 558.334V558.334Z" fill="black"/>
</g>
</g>
<g id="Group_42">
<g id="Group_43">
<path id="Vector_32" d="M319.946 491.401H303.367C302.756 491.401 302.261 490.964 302.261 490.424C302.261 489.885 302.756 489.448 303.367 489.448H319.946C322.346 489.448 324.3 487.723 324.3 485.603V470.948C324.3 470.409 324.795 469.971 325.406 469.971C326.017 469.971 326.512 470.409 326.512 470.948V485.604C326.512 488.8 323.566 491.401 319.946 491.401Z" fill="black"/>
</g>
</g>
<g id="Group_44">
<g id="Group_45">
<path id="Vector_33" d="M346.449 546.992C345.463 546.992 344.489 546.598 343.852 545.85C342.778 544.588 343.067 542.79 344.496 541.841L350.508 537.852L344.496 533.864C343.067 532.915 342.778 531.117 343.852 529.855C344.927 528.592 346.963 528.338 348.393 529.286L357.856 535.563H357.856C358.679 536.11 359.151 536.944 359.151 537.852C359.151 538.761 358.679 539.595 357.856 540.141L348.393 546.418C347.81 546.805 347.127 546.992 346.449 546.992V546.992ZM346.446 530.665C346.132 530.665 345.822 530.79 345.62 531.028C345.279 531.429 345.371 532.001 345.825 532.302L353.014 537.071C353.292 537.256 353.456 537.545 353.456 537.852C353.456 538.16 353.292 538.448 353.014 538.633L345.825 543.402C345.371 543.703 345.279 544.275 345.62 544.676C345.961 545.077 346.608 545.159 347.063 544.858L356.527 538.58C356.789 538.406 356.939 538.141 356.939 537.852C356.939 537.564 356.789 537.299 356.527 537.124L347.064 530.847C346.879 530.724 346.662 530.665 346.446 530.665Z" fill="black"/>
</g>
</g>
<g id="Group_46">
<g id="Group_47">
<path id="Vector_34" d="M331.7 546.993C331.002 546.993 330.326 546.795 329.758 546.419L320.295 540.141C319.472 539.595 319 538.761 319 537.852C319 536.943 319.472 536.109 320.295 535.563L329.758 529.286C330.449 528.827 331.303 528.633 332.162 528.741C333.02 528.848 333.78 529.244 334.299 529.855C334.82 530.466 335.04 531.22 334.918 531.977C334.796 532.734 334.347 533.404 333.654 533.864L327.643 537.852L333.654 541.84C334.348 542.3 334.797 542.971 334.918 543.729C335.039 544.485 334.819 545.238 334.299 545.85C333.778 546.461 333.02 546.857 332.162 546.964C332.008 546.984 331.853 546.993 331.7 546.993V546.993ZM331.703 530.665C331.481 530.665 331.267 530.728 331.087 530.847L321.624 537.124C321.359 537.3 321.213 537.558 321.213 537.852C321.213 538.145 321.359 538.404 321.624 538.58L331.087 544.857C331.307 545.003 331.578 545.065 331.852 545.03C332.124 544.996 332.365 544.87 332.53 544.676C332.696 544.481 332.766 544.242 332.728 544.002C332.689 543.761 332.546 543.548 332.325 543.401L325.137 538.632C324.859 538.448 324.695 538.159 324.695 537.852C324.695 537.544 324.859 537.256 325.137 537.071L332.325 532.302C332.546 532.156 332.689 531.943 332.728 531.702C332.766 531.462 332.697 531.222 332.531 531.028C332.366 530.834 332.124 530.708 331.851 530.674C331.802 530.668 331.752 530.665 331.703 530.665V530.665Z" fill="black"/>
</g>
</g>
<g id="Group_48">
<g id="Group_49">
<path id="Vector_35" d="M335.602 549.154C335.243 549.154 334.879 549.101 334.523 548.99C332.837 548.463 331.952 546.823 332.548 545.335L339.319 528.458C339.609 527.733 340.203 527.153 340.99 526.825C341.769 526.5 342.646 526.461 343.458 526.715H343.458C345.143 527.242 346.029 528.882 345.432 530.37L338.662 547.247C338.192 548.42 336.938 549.154 335.602 549.154V549.154ZM342.375 528.503C342.224 528.503 342.074 528.533 341.933 528.591C341.684 528.695 341.496 528.879 341.404 529.11L334.634 545.986C334.444 546.46 334.725 546.981 335.261 547.149C335.798 547.316 336.387 547.068 336.577 546.595L343.347 529.719C343.537 529.245 343.255 528.724 342.72 528.556C342.607 528.521 342.491 528.503 342.375 528.503V528.503Z" fill="black"/>
</g>
</g>
</g>
</g>
<g id="react" filter="url(#filter4_d)">
<g id="Vector_36" filter="url(#filter5_i)">
<path d="M720.392 489.07C716.198 483.235 707.178 480.811 695.024 482.203C694.595 482.247 694.14 482.315 693.711 482.36C693.534 482.001 693.357 481.642 693.155 481.283C687.925 471.431 680.775 466 672.992 466C665.21 466 658.035 471.431 652.83 481.283C652.653 481.642 652.451 482.001 652.274 482.36C651.819 482.293 651.39 482.247 650.961 482.203C638.783 480.789 629.787 483.235 625.593 489.07C621.399 494.905 622.687 503.186 629.206 512.387C630.066 513.599 631 514.81 632.011 516C631 517.211 630.066 518.401 629.206 519.613C622.687 528.814 621.399 537.117 625.593 542.93C629.004 547.687 635.624 550.179 644.542 550.179C646.68 550.168 648.815 550.041 650.935 549.796C651.364 549.752 651.819 549.684 652.249 549.64C652.426 549.999 652.603 550.358 652.805 550.717C658.035 560.568 665.186 566 672.967 566C680.749 566 687.925 560.568 693.129 550.717C693.306 550.358 693.508 549.999 693.685 549.64C694.14 549.707 694.569 549.752 695 549.796C697.118 550.052 699.253 550.179 701.391 550.179C710.31 550.179 716.93 547.687 720.341 542.93C724.535 537.095 723.246 528.814 716.729 519.613C715.869 518.401 714.934 517.19 713.924 516C714.934 514.788 715.869 513.599 716.729 512.387C723.322 503.164 724.611 494.882 720.392 489.07V489.07ZM657.403 483.191C661.673 475.112 667.358 470.488 672.992 470.488C678.627 470.488 684.312 475.112 688.581 483.191C688.584 483.207 688.593 483.223 688.607 483.235C683.24 484.382 678.005 485.967 672.967 487.97C667.934 485.957 662.697 484.371 657.327 483.235C657.378 483.235 657.378 483.213 657.403 483.191V483.191ZM695.758 516C695.759 519.591 695.54 523.18 695.1 526.749C691.951 529.006 688.661 531.104 685.247 533.033C681.306 535.28 677.204 537.298 672.967 539.07C668.739 537.284 664.637 535.267 660.688 533.033C657.277 531.099 653.988 529.001 650.834 526.749C649.958 519.604 649.958 512.395 650.834 505.25C657.644 500.389 665.073 496.254 672.967 492.93C677.196 494.716 681.297 496.732 685.247 498.966C688.657 500.9 691.947 502.998 695.1 505.25C695.54 508.82 695.759 512.408 695.758 516V516ZM700.583 509.469C703.057 511.516 705.386 513.697 707.557 516C705.386 518.302 703.057 520.483 700.583 522.53C700.735 520.376 700.811 518.199 700.811 516C700.811 513.801 700.735 511.624 700.583 509.469ZM694.064 533.123C693.267 537.008 692.109 540.829 690.603 544.546C686.679 543.758 682.827 542.708 679.082 541.404C682.063 540.012 685.044 538.486 688 536.826C690.073 535.636 692.094 534.402 694.064 533.123V533.123ZM666.903 541.404C663.164 542.725 659.311 543.776 655.382 544.546C653.876 540.829 652.718 537.008 651.921 533.123C653.866 534.402 655.887 535.636 657.985 536.803C660.941 538.486 663.922 540.012 666.903 541.404ZM645.402 522.53C642.928 520.483 640.6 518.302 638.428 516C640.6 513.697 642.928 511.516 645.402 509.469C645.25 511.624 645.174 513.801 645.174 516C645.174 518.199 645.25 520.376 645.402 522.53ZM651.921 498.877C652.718 494.991 653.876 491.171 655.382 487.454C659.306 488.241 663.158 489.291 666.903 490.596C663.922 491.988 660.941 493.514 657.985 495.174C655.912 496.364 653.891 497.598 651.921 498.877ZM687.975 495.174C685.044 493.514 682.063 491.965 679.056 490.596C682.795 489.275 686.648 488.224 690.578 487.454C692.083 491.171 693.241 494.991 694.039 498.877C692.094 497.598 690.073 496.364 687.975 495.174ZM633.477 509.985C628.119 502.445 626.806 495.69 629.838 491.471C632.264 488.105 637.519 486.287 644.618 486.287C646.519 486.294 648.418 486.407 650.303 486.623H650.354C648.31 491.902 646.887 497.355 646.11 502.894C642.216 505.779 638.591 508.939 635.27 512.342C634.638 511.579 634.032 510.794 633.477 509.985ZM650.279 545.354C648.394 545.571 646.495 545.683 644.594 545.69C637.494 545.69 632.238 543.895 629.813 540.506C626.781 536.287 628.095 529.532 633.451 521.992C634.007 521.206 634.614 520.398 635.245 519.613C638.565 523.016 642.19 526.176 646.084 529.061C646.863 534.6 648.285 540.053 650.329 545.331C650.329 545.354 650.303 545.354 650.279 545.354ZM688.581 548.809C684.312 556.888 678.627 561.512 672.992 561.512C667.358 561.512 661.673 556.888 657.403 548.809C657.4 548.793 657.392 548.777 657.378 548.765C662.745 547.618 667.98 546.033 673.018 544.029C678.051 546.043 683.287 547.629 688.657 548.765C688.607 548.765 688.607 548.787 688.581 548.809ZM712.508 522.015C717.865 529.554 719.179 536.31 716.147 540.529C713.115 544.747 705.662 546.521 695.706 545.354H695.656C697.7 540.075 699.123 534.622 699.901 529.084C703.794 526.199 707.42 523.038 710.74 519.635C711.347 520.421 711.953 521.206 712.508 522.015V522.015ZM699.875 502.916C699.098 497.377 697.675 491.924 695.631 486.646H695.682C705.636 485.501 713.09 487.252 716.122 491.471C719.153 495.69 717.84 502.445 712.484 509.985C711.928 510.771 711.321 511.579 710.689 512.365C707.384 508.955 703.767 505.795 699.875 502.916Z" fill="url(#paint0_linear)"/>
</g>
<g id="Vector_37" filter="url(#filter6_i)">
<path d="M672.996 507.113C667.989 507.113 663.931 511.092 663.931 516C663.931 520.908 667.989 524.887 672.996 524.887C678.002 524.887 682.061 520.908 682.061 516C682.057 511.093 678 507.116 672.996 507.113ZM672.996 520.398C670.518 520.398 668.509 518.429 668.509 516C668.509 513.571 670.518 511.601 672.996 511.601C675.473 511.601 677.482 513.571 677.482 516C677.478 518.428 675.471 520.395 672.996 520.398Z" fill="url(#paint1_linear)"/>
</g>
</g>
<g id="hacker 1" clip-path="url(#clip0)">
<g id="Group_50">
<g id="Group_51">
<path id="Vector_38" fill-rule="evenodd" clip-rule="evenodd" d="M551.414 484.545C555.113 474.261 561.223 464.869 564.672 455.624C563.311 438.825 556.867 422.746 540.912 413.94C530.589 429.593 525.887 443.487 519.157 475.966V501.423L534.945 510.589L548.191 501.423L548.311 501.197C548.251 495.349 549.516 489.82 551.414 484.545Z" fill="#C6D0DA"/>
</g>
<g id="Group_52">
<path id="Vector_39" fill-rule="evenodd" clip-rule="evenodd" d="M452.532 577.104C458.785 553.151 476.339 511.961 454.155 484.518C438.593 484.518 422.996 500.877 418.711 526.255L411.73 567.699L452.532 577.104Z" fill="#918291"/>
</g>
<g id="Group_53">
<path id="Vector_40" fill-rule="evenodd" clip-rule="evenodd" d="M484.716 501.423C496.65 472.809 477.031 436.188 467.627 409.478C451.255 418.736 445.466 440.464 444.428 457.955C447.221 466.441 451.493 475.113 454.154 484.518C455.658 489.807 456.648 495.335 456.588 501.197V501.423L469.179 507.964L484.716 501.423Z" fill="#C6D0DA"/>
</g>
<g id="Group_54">
<path id="Vector_41" fill-rule="evenodd" clip-rule="evenodd" d="M593.492 567.699L586.499 526.255C582.227 500.877 566.975 484.545 551.414 484.545C531.127 490.793 536.652 544.959 555.555 567.699L576.498 573.147L593.492 567.699Z" fill="#918291"/>
</g>
<g id="Group_55">
<path id="Vector_42" fill-rule="evenodd" clip-rule="evenodd" d="M564.672 455.624C563.705 443.634 560.149 432.018 552.392 423.145C549.277 419.575 545.483 411.755 540.912 409.238V416.445C549.981 425.53 554.027 442.715 555.077 455.624C551.616 464.869 545.506 474.261 541.819 484.545C539.909 489.82 538.645 495.349 538.704 501.197L538.585 501.423H548.191L548.311 501.197C548.251 495.349 549.516 489.82 551.414 484.545C555.113 474.261 561.223 464.869 564.672 455.624V455.624Z" fill="#A0AAB7"/>
</g>
<g id="Group_56">
<path id="Vector_43" fill-rule="evenodd" clip-rule="evenodd" d="M523.369 501.423V475.966C510.374 468.879 498.667 469.838 484.716 475.912V501.423L502.7 507.058L523.369 501.423Z" fill="#FED1A3"/>
</g>
<g id="Group_57">
<path id="Vector_44" fill-rule="evenodd" clip-rule="evenodd" d="M586.498 526.255C582.226 500.877 566.975 484.545 551.414 484.545C550.602 486.81 549.898 489.128 549.373 491.499C559.755 491.832 567.572 498.213 572.452 510.589C576.856 521.739 582.238 553.964 585.4 567.699H593.491L586.498 526.255Z" fill="#685D68"/>
</g>
<g id="Group_58">
<path id="Vector_45" fill-rule="evenodd" clip-rule="evenodd" d="M555.554 567.699L560.018 507.178C560.244 504.021 557.738 501.423 554.958 501.423H548.191H523.369H484.716H456.589H453.128C450.348 501.423 447.842 504.021 448.08 507.178L452.532 567.699L502.39 577.104L555.554 567.699Z" fill="#FAF8F9"/>
</g>
<g id="Group_59">
<path id="Vector_46" fill-rule="evenodd" clip-rule="evenodd" d="M504.049 546.77C511.484 546.77 517.51 541.308 517.51 534.568C517.51 527.827 511.484 522.352 504.049 522.352C496.614 522.352 490.588 527.827 490.588 534.568C490.588 541.308 496.614 546.77 504.049 546.77Z" fill="#E7A561"/>
</g>
<g id="Group_60">
<path id="Vector_47" fill-rule="evenodd" clip-rule="evenodd" d="M555.554 567.699L560.018 507.178C560.244 504.021 557.738 501.423 554.958 501.423H548.191H541.055C543.836 501.423 546.342 504.021 546.103 507.178L541.652 567.699H555.554Z" fill="#E5E1E5"/>
</g>
<g id="Group_61">
<path id="Vector_48" fill-rule="evenodd" clip-rule="evenodd" d="M517.51 534.568C517.51 527.827 511.484 522.352 504.049 522.352C502.415 522.352 500.863 522.618 499.419 523.097C504.706 524.736 508.513 529.292 508.513 534.648C508.513 539.91 504.825 544.399 499.67 546.104C501.042 546.53 502.51 546.77 504.05 546.77C511.484 546.77 517.51 541.308 517.51 534.568V534.568Z" fill="#E28424"/>
</g>
<g id="Group_62">
<path id="Vector_49" fill-rule="evenodd" clip-rule="evenodd" d="M504.049 484.705C501.376 484.558 498.655 483.866 495.612 482.64C491.733 481.068 488.058 478.75 484.716 475.913V487.422C488.929 491.326 499.383 494.256 507.247 492.205C510.35 490.953 513.334 490.513 516.126 488.928C518.513 487.569 518.143 488.915 518.143 492.498V501.423H523.37V475.966C520.016 478.777 516.329 481.081 512.475 482.64C509.431 483.865 506.722 484.558 504.049 484.705Z" fill="#F5A96C"/>
</g>
<g id="Group_63">
<path id="Vector_50" fill-rule="evenodd" clip-rule="evenodd" d="M567.274 442.689C566.593 394.664 531.52 358.549 504.478 358.549C477.437 358.549 442.364 394.664 441.684 442.689C441.612 447.791 442.758 452.84 444.428 457.955C445.466 440.464 451.255 423.439 467.627 414.167C467.759 414.1 467.902 414.02 468.033 413.941C481.625 406.441 493.13 403.403 504.478 403.403C515.815 403.403 527.331 406.441 540.912 413.941C556.867 422.746 563.311 438.826 564.672 455.624C566.295 451.308 567.333 447.018 567.274 442.689V442.689Z" fill="#918291"/>
</g>
<g id="Group_64">
<path id="Vector_51" fill-rule="evenodd" clip-rule="evenodd" d="M567.274 442.689C566.593 394.664 531.52 358.549 504.478 358.549C498.154 358.549 491.387 360.52 484.728 364.157C487.509 363.478 490.254 363.132 492.927 363.132C515.195 363.132 542.929 387.657 552.392 423.146C560.149 432.018 563.705 443.635 564.672 455.624C566.295 451.307 567.333 447.018 567.274 442.689V442.689Z" fill="#685D68"/>
</g>
<g id="Group_65">
<path id="Vector_52" fill-rule="evenodd" clip-rule="evenodd" d="M593.492 567.699H555.555H452.532H411.73H408.27C404.057 567.699 400.608 571.562 400.608 576.265V582.899C400.608 587.601 404.057 591.451 408.27 591.451H598.731C602.943 591.451 606.392 587.601 606.392 582.899V576.265C606.392 571.562 602.943 567.699 598.731 567.699H593.492Z" fill="#E7A561"/>
</g>
<g id="Group_66">
<path id="Vector_53" fill-rule="evenodd" clip-rule="evenodd" d="M606.392 582.899V576.265C606.392 571.562 602.943 567.699 598.73 567.699H593.491H585.4H581.355C585.567 567.699 589.016 571.562 589.016 576.265V582.899C589.016 587.601 585.567 591.451 581.355 591.451H598.73C602.943 591.451 606.392 587.601 606.392 582.899Z" fill="#E28424"/>
</g>
<g id="Group_67">
<path id="Vector_54" fill-rule="evenodd" clip-rule="evenodd" d="M540.912 428.461V409.238C527.331 401.751 515.815 398.714 504.479 398.714C493.13 398.714 481.626 401.752 468.033 409.238L467.628 409.478V428.462L507.152 431.632L540.912 428.461Z" fill="#918291"/>
</g>
<g id="Group_68">
<path id="Vector_55" fill-rule="evenodd" clip-rule="evenodd" d="M540.912 413.94C527.331 406.44 515.815 403.403 504.479 403.403C493.13 403.403 481.566 406.32 468.033 413.94L467.628 414.167V424.144L468.033 423.918C481.626 416.418 493.13 413.38 504.479 413.38C512.391 413.38 520.434 414.726 529.122 418.309C531.031 419.095 531.544 419.721 531.544 421.8V427.275V428.46H540.913V423.917V413.94H540.912Z" fill="#685D68"/>
</g>
<g id="Group_69">
<path id="Vector_56" fill-rule="evenodd" clip-rule="evenodd" d="M540.912 442.129V428.461H467.627V442.982C467.627 444.98 467.854 447.045 468.295 449.149C468.534 450.268 468.833 451.414 469.179 452.546C468.892 459.513 537.618 459.926 539.289 452.546C539.647 451.401 539.945 450.255 540.184 449.123C540.637 447.004 540.912 444.607 540.912 442.129Z" fill="#FED1A3"/>
</g>
<g id="Group_70">
<path id="Vector_57" fill-rule="evenodd" clip-rule="evenodd" d="M539.289 452.546C539.647 451.401 539.945 450.255 540.184 449.123C540.637 447.004 540.912 444.607 540.912 442.129V428.461H531.544V440.943C531.544 443.421 531.258 445.806 530.804 447.937C530.363 450.042 529.742 452.054 528.978 454.025C532.415 453.825 535.876 453.332 539.289 452.546V452.546Z" fill="#F5A96C"/>
</g>
<g id="Group_71">
<path id="Vector_58" fill-rule="evenodd" clip-rule="evenodd" d="M523.369 475.966C530.78 469.758 536.628 461.085 539.289 452.546C529.945 454.691 520.327 454.638 511.663 452.546C509.586 452.053 505.123 449.429 504.538 446.512C504.515 446.432 504.431 446.445 504.419 446.512C503.834 449.429 499.359 452.053 497.295 452.546C488.631 454.638 478.523 454.691 469.179 452.546C471.793 461.059 477.438 469.705 484.717 475.913C488.058 478.75 491.734 481.068 495.612 482.64C498.655 483.866 501.376 484.558 504.049 484.705C506.722 484.558 509.431 483.866 512.475 482.64C516.329 481.081 520.016 478.777 523.369 475.966Z" fill="#918291"/>
</g>
<g id="Group_72">
<path id="Vector_59" fill-rule="evenodd" clip-rule="evenodd" d="M523.369 475.966C530.721 469.811 536.532 461.232 539.229 452.759C539.241 452.679 539.265 452.612 539.289 452.546C535.876 453.332 532.415 453.825 528.978 454.025C528.644 454.891 528.286 455.743 527.892 456.596C525.195 462.484 521.114 468.186 516.197 472.822C515.481 473.501 514.741 474.154 513.99 474.78C510.636 477.591 506.961 479.896 503.106 481.454C500.994 482.307 499.037 482.893 497.151 483.226C499.585 484.092 501.829 484.585 504.049 484.705C506.722 484.558 509.431 483.866 512.474 482.64C516.329 481.081 520.016 478.777 523.369 475.966V475.966Z" fill="#685D68"/>
</g>
<g id="Group_73">
<path id="Vector_60" d="M482.703 442.998L489.6 444.677C489.829 444.733 490.056 444.759 490.281 444.759C491.743 444.759 493.059 443.626 493.384 441.965C493.757 440.05 492.67 438.159 490.955 437.742L484.057 436.063C482.339 435.646 480.648 436.86 480.274 438.775C479.9 440.69 480.987 442.581 482.703 442.998V442.998Z" fill="black"/>
<path id="Vector_61" d="M518.677 444.76C518.901 444.76 519.129 444.733 519.357 444.677L526.255 442.999C527.971 442.582 529.058 440.691 528.684 438.775C528.31 436.861 526.617 435.646 524.9 436.064L518.002 437.743C516.287 438.16 515.199 440.051 515.574 441.966C515.898 443.626 517.214 444.76 518.677 444.76Z" fill="black"/>
<path id="Vector_62" d="M598.731 564.15H596.128L589.623 525.599C587.455 512.717 582.562 501.588 575.474 493.415C569.804 486.877 563.068 482.74 556.123 481.44C557.692 477.79 559.5 474.213 561.287 470.68C566.068 461.229 570.585 452.301 570.453 442.632C570.128 419.687 562.195 397.523 548.115 380.222C535.261 364.429 518.948 355 504.478 355C490.179 355 474.012 364.253 461.231 379.751C460.042 381.193 460.125 383.438 461.417 384.766C462.708 386.093 464.719 386 465.909 384.558C477.507 370.494 491.925 362.098 504.478 362.098C529.668 362.098 560.295 394.64 563.775 436.255C559.544 424.932 552.302 416.268 542.321 410.759C528.849 403.319 516.825 399.854 504.478 399.854C492.135 399.854 480.107 403.319 466.624 410.759C456.403 416.398 449.213 425.19 445.117 437.005C446.183 422.664 450.49 408.709 457.713 396.334C458.672 394.692 458.256 392.493 456.785 391.424C455.314 390.354 453.344 390.817 452.385 392.46C443.547 407.603 438.747 424.953 438.505 442.631C438.368 452.128 441.911 461.005 445.662 470.402C447.094 473.99 448.544 477.623 449.796 481.339C433.606 484.079 419.596 501.847 415.587 525.599L409.093 564.15H408.269C402.292 564.15 397.429 569.584 397.429 576.265V582.899C397.429 589.571 402.292 595 408.269 595H598.731C604.708 595 609.571 589.571 609.571 582.899V576.264C609.571 569.584 604.708 564.15 598.731 564.15V564.15ZM583.374 526.912L589.657 564.15H558.76L563.186 507.477C563.367 505.074 562.638 502.742 561.133 500.914C559.542 498.983 557.291 497.875 554.958 497.875H551.61C551.88 494.582 552.585 491.37 553.573 488.223C567.442 489.724 579.773 505.523 583.374 526.912V526.912ZM542.335 453.565C542.702 452.363 543.022 451.156 543.276 449.948C543.809 447.459 544.091 444.755 544.091 442.129V420.065C554.154 427.522 559.974 439.271 561.426 455.075C559.887 459.01 557.848 463.045 555.75 467.19C551.156 476.272 546.007 486.458 545.232 497.875H526.55V477.703C533.769 471.272 539.561 462.594 542.317 453.624C542.322 453.604 542.329 453.585 542.335 453.565V453.565ZM511.395 479.302C508.621 480.419 506.282 481.008 504.049 481.151C501.807 481.008 499.463 480.418 496.692 479.302C487.472 475.584 479.005 466.915 474.375 457.08C477.372 457.487 480.401 457.694 483.409 457.694C488.397 457.694 493.329 457.135 497.96 456.017C499.3 455.697 502.195 454.433 504.476 452.315C506.758 454.435 509.654 455.698 510.991 456.015C518.356 457.793 526.211 458.15 534.007 457.096C529.277 466.812 520.604 475.587 511.395 479.302V479.302ZM520.19 482.533V497.875H487.896V482.5C490.047 483.889 492.27 485.066 494.533 485.979C497.981 487.367 500.955 488.089 503.893 488.25C503.945 488.252 503.997 488.254 504.049 488.254C504.101 488.254 504.153 488.252 504.205 488.25C507.134 488.089 510.104 487.368 513.554 485.978C515.817 485.065 518.039 483.902 520.19 482.533V482.533ZM470.807 416.389C482.824 409.963 493.562 406.952 504.478 406.952C515.274 406.952 525.889 409.893 537.732 416.17V424.912H470.807V416.389ZM470.807 432.01H537.732V442.129C537.732 444.207 537.511 446.34 537.089 448.31C537.008 448.692 536.919 449.075 536.824 449.457C528.567 451.087 520.138 450.962 512.324 449.075C510.702 448.69 507.942 446.71 507.64 445.737C507.616 445.615 507.585 445.494 507.549 445.375C507.08 443.827 505.739 442.814 504.278 442.915C502.845 443.013 501.638 444.162 501.319 445.72C500.999 446.719 498.246 448.69 496.622 449.078C488.902 450.941 479.905 451.066 471.646 449.456C471.556 449.085 471.469 448.713 471.391 448.341C471.003 446.492 470.806 444.689 470.806 442.982V432.01H470.807ZM447.653 457.429C448.79 440.565 454.43 428.142 464.448 420.4V442.982C464.448 445.233 464.701 447.58 465.201 449.963C465.454 451.165 465.77 452.365 466.132 453.56C466.139 453.588 466.148 453.614 466.156 453.641C468.879 462.575 474.52 471.186 481.537 477.579V497.875H459.694C459.099 486.63 455.067 476.524 451.47 467.513C450.101 464.081 448.765 460.725 447.653 457.429V457.429ZM421.836 526.912C423.746 515.599 428.234 505.458 434.474 498.355C439.64 492.475 445.718 488.943 451.812 488.214C452.577 491.356 453.118 494.569 453.322 497.875H453.128C450.799 497.875 448.553 498.98 446.966 500.907C445.46 502.736 444.73 505.069 444.912 507.469L449.081 564.15H415.563L421.836 526.912ZM603.213 582.899C603.213 585.658 601.202 587.902 598.731 587.902H408.269C405.798 587.902 403.787 585.657 403.787 582.899V576.264C403.787 573.498 405.798 571.247 408.269 571.247H496.698C498.453 571.247 499.877 569.658 499.877 567.698C499.877 565.738 498.453 564.149 496.698 564.149H455.46L451.248 506.88C451.208 506.361 451.443 505.958 451.647 505.71C452.027 505.248 452.581 504.972 453.128 504.972H484.716H523.369H554.958C555.501 504.972 556.073 505.257 556.451 505.717C556.655 505.964 556.889 506.365 556.851 506.869L552.378 564.149H510.815C509.06 564.149 507.636 565.738 507.636 567.698C507.636 569.658 509.06 571.247 510.815 571.247H593.474C593.479 571.247 593.483 571.247 593.488 571.247C593.492 571.247 593.497 571.247 593.501 571.247H598.73C601.202 571.247 603.213 573.497 603.213 576.264V582.899H603.213Z" fill="black"/>
<path id="Vector_63" d="M520.69 534.568C520.69 525.875 513.225 518.803 504.049 518.803C494.874 518.803 487.409 525.875 487.409 534.568C487.409 543.253 494.874 550.319 504.049 550.319C513.225 550.319 520.69 543.253 520.69 534.568ZM504.049 543.221C498.475 543.221 493.767 539.259 493.767 534.568C493.767 529.87 498.476 525.901 504.049 525.901C509.622 525.901 514.331 529.87 514.331 534.568C514.331 539.259 509.622 543.221 504.049 543.221Z" fill="black"/>
</g>
</g>
</g>
<g id="coding 1">
<path id="Vector_64" d="M487.584 304.242L501.5 307.172L515.416 304.242C515.416 296.429 519.2 291.116 523.211 285.491C527.587 279.346 532.115 272.991 532.115 263.227C532.115 245.457 518.379 231 501.5 231C484.621 231 470.885 245.457 470.885 263.227C470.885 272.991 475.413 279.346 479.789 285.491C483.8 291.116 487.584 296.429 487.584 304.242Z" fill="#FFE566"/>
<path id="Vector_65" d="M515.416 304.242C515.416 296.429 519.2 291.116 523.211 285.491C527.587 279.346 532.115 272.991 532.115 263.227C532.115 245.457 518.379 231 501.5 231V307.172L515.416 304.242Z" fill="#FFC24D"/>
<path id="Vector_66" d="M487.584 322.211C487.584 327.057 491.329 331 495.934 331H507.066C511.671 331 515.416 327.057 515.416 322.211V304.242H487.584V322.211Z" fill="#CCE6FF"/>
<path id="Vector_67" d="M515.416 304.242H501.5V331H507.066C511.671 331 515.416 327.057 515.416 322.211V304.242Z" fill="#B5C9F2"/>
<g id="Group_74">
<g id="Bulb 2">
<g id="Group_75">
<path id="Vector_68" d="M520.982 316.352C520.982 317.971 519.738 319.281 518.199 319.281H484.801C483.262 319.281 482.018 317.971 482.018 316.352C482.018 314.732 483.262 313.422 484.801 313.422H518.199C519.738 313.422 520.982 314.732 520.982 316.352Z" fill="#E6F7FF"/>
</g>
<g id="Group_76">
<path id="Vector_69" d="M520.982 304.242C520.982 305.862 519.738 307.172 518.199 307.172H484.801C483.262 307.172 482.018 305.862 482.018 304.242C482.018 302.623 483.262 301.313 484.801 301.313H518.199C519.738 301.313 520.982 302.623 520.982 304.242Z" fill="#E6F7FF"/>
</g>
</g>
<g id="Group_77">
<path id="Vector_70" d="M492.335 255.296C491.248 254.152 489.486 254.152 488.399 255.296L482.833 261.155C481.746 262.3 481.746 264.154 482.833 265.298L488.399 271.157C489.486 272.302 491.248 272.302 492.335 271.157C493.422 270.013 493.422 268.159 492.335 267.015L488.736 263.227L492.335 259.438C493.422 258.294 493.422 256.44 492.335 255.296V255.296Z" fill="#4D4D99"/>
<path id="Vector_71" d="M520.167 265.298C521.254 264.154 521.254 262.299 520.167 261.155L514.601 255.296C513.513 254.151 511.752 254.151 510.665 255.296C509.578 256.44 509.578 258.294 510.665 259.438L514.264 263.227L510.665 267.015C509.578 268.159 509.578 270.013 510.665 271.157C511.752 272.302 513.513 272.302 514.601 271.157L520.167 265.298Z" fill="#292966"/>
<path id="Vector_72" d="M504.957 248.667C503.452 248.272 501.951 249.225 501.582 250.798L496.015 274.236C495.646 275.804 496.548 277.394 498.043 277.786C499.531 278.178 501.046 277.229 501.419 275.655L506.985 252.217C507.355 250.649 506.452 249.059 504.957 248.667V248.667Z" fill="#4D4D99"/>
</g>
<path id="Vector_73" d="M504.957 248.667C503.452 248.272 501.951 249.225 501.582 250.798L501.5 251.142V275.312L506.985 252.217C507.355 250.649 506.452 249.059 504.957 248.667Z" fill="#292966"/>
<g id="Group_78">
<path id="Vector_74" d="M520.982 316.352C520.982 314.732 519.738 313.422 518.199 313.422H501.5V319.281H518.199C519.738 319.281 520.982 317.971 520.982 316.352Z" fill="#CCE6FF"/>
<path id="Vector_75" d="M518.199 301.313H501.5V307.172H518.199C519.738 307.172 520.982 305.862 520.982 304.242C520.982 302.623 519.738 301.313 518.199 301.313Z" fill="#CCE6FF"/>
</g>
</g>
</g>
</g>
<defs>
<filter id="filter0_i" x="0" y="3" width="1002" height="477.091" filterUnits="userSpaceOnUse" color-interpolation-filters="sRGB">
<feFlood flood-opacity="0" result="BackgroundImageFix"/>
<feBlend mode="normal" in="SourceGraphic" in2="BackgroundImageFix" result="shape"/>
<feColorMatrix in="SourceAlpha" type="matrix" values="0 0 0 0 0 0 0 0 0 0 0 0 0 0 0 0 0 0 127 0" result="hardAlpha"/>
<feOffset dy="4"/>
<feGaussianBlur stdDeviation="2"/>
<feComposite in2="hardAlpha" operator="arithmetic" k2="-1" k3="1"/>
<feColorMatrix type="matrix" values="0 0 0 0 0 0 0 0 0 0 0 0 0 0 0 0 0 0 0.25 0"/>
<feBlend mode="normal" in2="shape" result="effect1_innerShadow"/>
</filter>
<filter id="filter1_i" x="593" y="343" width="82.9644" height="104" filterUnits="userSpaceOnUse" color-interpolation-filters="sRGB">
<feFlood flood-opacity="0" result="BackgroundImageFix"/>
<feBlend mode="normal" in="SourceGraphic" in2="BackgroundImageFix" result="shape"/>
<feColorMatrix in="SourceAlpha" type="matrix" values="0 0 0 0 0 0 0 0 0 0 0 0 0 0 0 0 0 0 127 0" result="hardAlpha"/>
<feOffset dy="4"/>
<feGaussianBlur stdDeviation="2"/>
<feComposite in2="hardAlpha" operator="arithmetic" k2="-1" k3="1"/>
<feColorMatrix type="matrix" values="0 0 0 0 0 0 0 0 0 0 0 0 0 0 0 0 0 0 0.25 0"/>
<feBlend mode="normal" in2="shape" result="effect1_innerShadow"/>
</filter>
<filter id="filter2_i" x="325" y="343" width="100" height="104" filterUnits="userSpaceOnUse" color-interpolation-filters="sRGB">
<feFlood flood-opacity="0" result="BackgroundImageFix"/>
<feBlend mode="normal" in="SourceGraphic" in2="BackgroundImageFix" result="shape"/>
<feColorMatrix in="SourceAlpha" type="matrix" values="0 0 0 0 0 0 0 0 0 0 0 0 0 0 0 0 0 0 127 0" result="hardAlpha"/>
<feOffset dy="4"/>
<feGaussianBlur stdDeviation="2"/>
<feComposite in2="hardAlpha" operator="arithmetic" k2="-1" k3="1"/>
<feColorMatrix type="matrix" values="0 0 0 0 0 0 0 0 0 0 0 0 0 0 0 0 0 0 0.25 0"/>
<feBlend mode="normal" in2="shape" result="effect1_innerShadow"/>
</filter>
<filter id="filter3_i" x="302" y="466" width="83" height="104" filterUnits="userSpaceOnUse" color-interpolation-filters="sRGB">
<feFlood flood-opacity="0" result="BackgroundImageFix"/>
<feBlend mode="normal" in="SourceGraphic" in2="BackgroundImageFix" result="shape"/>
<feColorMatrix in="SourceAlpha" type="matrix" values="0 0 0 0 0 0 0 0 0 0 0 0 0 0 0 0 0 0 127 0" result="hardAlpha"/>
<feOffset dy="4"/>
<feGaussianBlur stdDeviation="2"/>
<feComposite in2="hardAlpha" operator="arithmetic" k2="-1" k3="1"/>
<feColorMatrix type="matrix" values="0 0 0 0 0 0 0 0 0 0 0 0 0 0 0 0 0 0 0.25 0"/>
<feBlend mode="normal" in2="shape" result="effect1_innerShadow"/>
</filter>
<filter id="filter4_d" x="618" y="466" width="110" height="108" filterUnits="userSpaceOnUse" color-interpolation-filters="sRGB">
<feFlood flood-opacity="0" result="BackgroundImageFix"/>
<feColorMatrix in="SourceAlpha" type="matrix" values="0 0 0 0 0 0 0 0 0 0 0 0 0 0 0 0 0 0 127 0"/>
<feOffset dy="4"/>
<feGaussianBlur stdDeviation="2"/>
<feColorMatrix type="matrix" values="0 0 0 0 0 0 0 0 0 0 0 0 0 0 0 0 0 0 0.25 0"/>
<feBlend mode="normal" in2="BackgroundImageFix" result="effect1_dropShadow"/>
<feBlend mode="normal" in="SourceGraphic" in2="effect1_dropShadow" result="shape"/>
</filter>
<filter id="filter5_i" x="623.172" y="466" width="99.6552" height="104" filterUnits="userSpaceOnUse" color-interpolation-filters="sRGB">
<feFlood flood-opacity="0" result="BackgroundImageFix"/>
<feBlend mode="normal" in="SourceGraphic" in2="BackgroundImageFix" result="shape"/>
<feColorMatrix in="SourceAlpha" type="matrix" values="0 0 0 0 0 0 0 0 0 0 0 0 0 0 0 0 0 0 127 0" result="hardAlpha"/>
<feOffset dy="4"/>
<feGaussianBlur stdDeviation="2"/>
<feComposite in2="hardAlpha" operator="arithmetic" k2="-1" k3="1"/>
<feColorMatrix type="matrix" values="0 0 0 0 0 0 0 0 0 0 0 0 0 0 0 0 0 0 0.25 0"/>
<feBlend mode="normal" in2="shape" result="effect1_innerShadow"/>
</filter>
<filter id="filter6_i" x="663.931" y="507.113" width="18.13" height="21.7736" filterUnits="userSpaceOnUse" color-interpolation-filters="sRGB">
<feFlood flood-opacity="0" result="BackgroundImageFix"/>
<feBlend mode="normal" in="SourceGraphic" in2="BackgroundImageFix" result="shape"/>
<feColorMatrix in="SourceAlpha" type="matrix" values="0 0 0 0 0 0 0 0 0 0 0 0 0 0 0 0 0 0 127 0" result="hardAlpha"/>
<feOffset dy="4"/>
<feGaussianBlur stdDeviation="2"/>
<feComposite in2="hardAlpha" operator="arithmetic" k2="-1" k3="1"/>
<feColorMatrix type="matrix" values="0 0 0 0 0 0 0 0 0 0 0 0 0 0 0 0 0 0 0.25 0"/>
<feBlend mode="normal" in2="shape" result="effect1_innerShadow"/>
</filter>
<linearGradient id="paint0_linear" x1="673" y1="462.14" x2="673" y2="570.939" gradientUnits="userSpaceOnUse">
<stop stop-color="#00EFD1"/>
<stop offset="1" stop-color="#00ACEA"/>
</linearGradient>
<linearGradient id="paint1_linear" x1="672.996" y1="462.14" x2="672.996" y2="570.939" gradientUnits="userSpaceOnUse">
<stop stop-color="#00EFD1"/>
<stop offset="1" stop-color="#00ACEA"/>
</linearGradient>
<clipPath id="clip0">
<rect width="215" height="240" fill="white" transform="translate(396 355)"/>
</clipPath>
</defs>
</svg>
