<svg width="849" height="416" viewBox="0 0 849 416" fill="none" xmlns="http://www.w3.org/2000/svg">
<g id="Frame 1" filter="url(#filter0_d)">
<g id="Group">
<path id="Vector" d="M326.397 57.796H82.232C70.484 57.796 60.926 67.348 60.926 79.095V328.521C60.926 340.259 70.478 349.818 82.232 349.818H326.397C338.141 349.818 347.699 340.265 347.699 328.521V79.095C347.693 67.348 338.141 57.796 326.397 57.796ZM222.61 249.239H177.002L132.958 182.057V249.239H92.005V84.329H132.958V151.514L177.002 84.329H222.61L167.829 166.84L222.61 249.239ZM366.347 0H42.278C21.141 0 4 17.142 4 38.281V369.316C4 390.46 21.141 407.6 42.278 407.6H366.353C387.491 407.6 404.631 390.459 404.631 369.316V38.281C404.631 17.142 387.491 0 366.347 0ZM362.789 328.509C362.789 348.57 346.463 364.902 326.396 364.902H82.232C62.168 364.902 45.836 348.576 45.836 328.509V79.095C45.836 59.037 62.161 42.706 82.232 42.706H326.397C346.458 42.706 362.79 59.032 362.79 79.095V328.509H362.789Z" fill="black"/>
</g>
<g id="Vector_2" style="mix-blend-mode:darken">
<path d="M554.094 117.87H603.867V222.002H554.094V117.87ZM782.097 79.1726V328.843C782.097 340.594 771.607 350.155 758.708 350.155H490.551C477.649 350.155 467.152 340.594 467.152 328.843V79.1726C467.152 67.4194 477.642 57.8583 490.551 57.8583H758.708C771.607 57.8525 782.097 67.4194 782.097 79.1726ZM648.845 117.976C648.845 109.853 644.236 102.723 635.044 96.5964C625.839 90.4642 615.297 87.3996 603.404 87.3996H508.964V252.472H603.557C615.343 252.472 625.839 249.425 635.038 243.331C644.236 237.231 648.838 230.096 648.838 221.895V117.976H648.845V117.976ZM844.631 38.3193V369.679C844.631 390.842 825.805 408 802.591 408H446.671C423.457 408 404.631 390.842 404.631 369.679V38.3193C404.631 17.1575 423.457 0 446.671 0H802.592C825.805 0.00582995 844.631 17.1643 844.631 38.3193ZM798.677 79.1726C798.677 59.0943 780.748 42.7471 758.708 42.7471H490.551C468.515 42.7471 450.579 59.0884 450.579 79.1726V328.843C450.579 348.918 468.509 365.266 490.551 365.266H758.708C780.741 365.266 798.677 348.924 798.677 328.843V79.1726Z" fill="black"/>
</g>
</g>
<defs>
<filter id="filter0_d" x="0" y="0" width="848.631" height="416" filterUnits="userSpaceOnUse" color-interpolation-filters="sRGB">
<feFlood flood-opacity="0" result="BackgroundImageFix"/>
<feColorMatrix in="SourceAlpha" type="matrix" values="0 0 0 0 0 0 0 0 0 0 0 0 0 0 0 0 0 0 127 0"/>
<feOffset dy="4"/>
<feGaussianBlur stdDeviation="2"/>
<feColorMatrix type="matrix" values="0 0 0 0 0 0 0 0 0 0 0 0 0 0 0 0 0 0 0.25 0"/>
<feBlend mode="normal" in2="BackgroundImageFix" result="effect1_dropShadow"/>
<feBlend mode="normal" in="SourceGraphic" in2="effect1_dropShadow" result="shape"/>
</filter>
</defs>
</svg>
